# xmcd
#
# Track frame offsets: 
#        150
#        22507
#        59852
#        83882
#        101212
#        124662
#        145162
#
# Disc length: 2317 seconds
#
# Revision: 2
# Processed by: cddbd v1.5.2PL0 Copyright (c) Steve Scherf et al.
# Submitted via: ExactAudioCopyFreeDBPlugin 1.0
#
DISCID=5a090b07
DTITLE=Collins. Albert - Frozen Alive
DYEAR=1981
DGENRE=Blues
TTITLE0=Frosty (Live)
TTITLE1=Angel Of Mercy (Live)
TTITLE2=I Got That Feeling (Live)
TTITLE3=Caldonia (Live)
TTITLE4=Things I Used To Do (Live)
TTITLE5=Got A Mind To Travel (Live)
TTITLE6=Cold Cuts (Live)
EXTD=
EXTT0=
EXTT1=
EXTT2=
EXTT3=
EXTT4=
EXTT5=
EXTT6=
PLAYORDER=
